<svg width="21" height="27" viewBox="0 0 21 27" fill="none" xmlns="http://www.w3.org/2000/svg">
<path fill-rule="evenodd" clip-rule="evenodd" d="M10.0682 26.8633L10.5002 26.2505L10.0682 26.8633ZM10.9322 26.8633L10.9352 26.8618L10.9427 26.8566L10.9652 26.8393L11.0537 26.7756C11.1287 26.7201 11.2382 26.6391 11.3762 26.5326C11.6522 26.321 12.0438 26.0098 12.511 25.61C13.7376 24.5616 14.8845 23.4235 15.9423 22.205C18.4234 19.3354 21.0004 15.2396 21.0004 10.5572C21.0004 7.75966 19.8949 5.07461 17.9269 3.09456C16.9541 2.11459 15.7972 1.33667 14.5226 0.805573C13.248 0.274481 11.881 0.000703766 10.5002 0C9.11948 0.00060552 7.75249 0.274264 6.47792 0.805227C5.20335 1.33619 4.04637 2.11397 3.07356 3.09381C1.10359 5.07838 -0.00132229 7.76167 1.18759e-06 10.558C1.18759e-06 15.2396 2.57705 19.3354 5.05811 22.205C6.11591 23.4235 7.26284 24.5616 8.48943 25.61C8.95744 26.0098 9.3482 26.321 9.6242 26.5326C9.75958 26.6369 9.89634 26.7394 10.0345 26.8401L10.0585 26.8566L10.0652 26.8618L10.0682 26.8633C10.327 27.0456 10.6735 27.0456 10.9322 26.8633ZM10.5002 26.2505L10.9322 26.8633L10.5002 26.2505ZM14.2503 10.5002C14.2503 11.4948 13.8552 12.4486 13.1519 13.1519C12.4486 13.8552 11.4948 14.2503 10.5002 14.2503C9.50564 14.2503 8.55179 13.8552 7.84851 13.1519C7.14524 12.4486 6.75014 11.4948 6.75014 10.5002C6.75014 9.50564 7.14524 8.55179 7.84851 7.84851C8.55179 7.14524 9.50564 6.75014 10.5002 6.75014C11.4948 6.75014 12.4486 7.14524 13.1519 7.84851C13.8552 8.55179 14.2503 9.50564 14.2503 10.5002Z" fill="#0024FF"/>
</svg>
