<svg width="20" height="20" viewBox="0 0 20 20" fill="none" xmlns="http://www.w3.org/2000/svg">
<path d="M0 3C0 1.34315 1.34315 0 3 0H20V20H0V3Z" fill="white"/>
<path d="M4 15.8072V4.19283C4 3.14268 5.27088 2.60694 6.03292 3.33584L10 7.13044L7.59729 9.42867C7.271 9.74078 7.271 10.2592 7.59729 10.5713L10 12.8696L6.03292 16.6642C5.27088 17.3931 4 16.8573 4 15.8072Z" fill="#2474FF"/>
<path d="M13.9671 16.6642L10 12.8696L12.4027 10.5713C12.729 10.2592 12.729 9.74078 12.4027 9.42867L10 7.13044L13.9671 3.33584C14.7291 2.60694 16 3.14268 16 4.19283V15.8072C16 16.8573 14.7291 17.3931 13.9671 16.6642Z" fill="#2474FF"/>
</svg>
